Patient4_TMGait_0pt5_01_left_05_GRF.mot
version=1
nRows=37
nColumns=19
inDegrees=no
endheader
time	F1x	F1y	F1z	M1x	M1y	M1z	F2x	F2y	F2z	M2x	M2y	M2z	EC1x	EC1y	EC1z	EC2x	EC2y	EC2z
6.57	0	0	0	0	0	0	-41.8637	749.1488	-58.8853	277.6852	64.0631	588.0422	-0.0462	0.0182	-0.0073	-0.0462	0.0165	0.9715
6.5841	0	0	0	0	0	0	-41.4154	779.3495	-60.4577	288.6635	64.7578	610.0951	-0.0462	0.0182	-0.0073	-0.0462	0.0165	0.9715
6.5981	0	0	0	0	0	0	-39.4181	790.9805	-60.3277	292.7276	63.4633	616.8726	-0.0462	0.0182	-0.0073	-0.0462	0.0165	0.9715
6.6122	0	0	0	0	0	0	-36.2521	788.831	-58.8897	291.6695	60.6872	612.1265	-0.0462	0.0182	-0.0073	-0.0462	0.0165	0.9715
6.6263	0	0	0	0	0	0	-32.3684	778.4465	-56.6134	287.5601	57.0158	600.258	-0.0462	0.0182	-0.0073	-0.0462	0.0165	0.9715
6.6404	0	0	0	0	0	0	-28.2142	765.1166	-53.9637	282.3704	53.0164	585.5193	-0.0462	0.0182	-0.0073	-0.0462	0.0165	0.9715
6.6544	0	0	0	0	0	0	-24.1735	753.0939	-51.3373	277.6809	49.1621	571.3911	-0.0462	0.0182	-0.0073	-0.0462	0.0165	0.9715
6.6685	0	0	0	0	0	0	-20.5278	745.136	-49.0222	274.5118	45.7864	560.2096	-0.0462	0.0182	-0.0073	-0.0462	0.0165	0.9715
6.6826	0	0	0	0	0	0	-17.4393	742.3867	-47.183	273.2808	43.0687	553.0558	-0.0462	0.0182	-0.0073	-0.0462	0.0165	0.9715
6.6966	0	0	0	0	0	0	-14.9553	744.5484	-45.8692	273.8684	41.0461	549.8726	-0.0462	0.0182	-0.0073	-0.0462	0.0165	0.9715
6.7107	0	0	0	0	0	0	-13.0279	750.2629	-45.0404	275.7617	39.6455	549.7464	-0.0462	0.0182	-0.0073	-0.0462	0.0165	0.9715
6.7248	0	0	0	0	0	0	-11.5433	757.5986	-44.6038	278.2358	38.726	551.2739	-0.0462	0.0182	-0.0073	-0.0462	0.0165	0.9715
6.7389	0	0	0	0	0	0	-10.3532	764.5445	-44.4518	280.5375	38.1231	552.9383	-0.0462	0.0182	-0.0073	-0.0462	0.0165	0.9715
6.7529	0	0	0	0	0	0	-9.3016	769.4298	-44.4961	282.0397	37.6854	553.4317	-0.0462	0.0182	-0.0073	-0.0462	0.0165	0.9715
6.767	0	0	0	0	0	0	-8.2452	771.2103	-44.6885	282.3476	37.3	551.8795	-0.0462	0.0182	-0.0073	-0.0462	0.0165	0.9715
6.7811	0	0	0	0	0	0	-7.0639	769.5936	-45.027	281.3441	36.9019	547.9457	-0.0462	0.0182	-0.0073	-0.0462	0.0165	0.9715
6.7951	0	0	0	0	0	0	-5.6653	765.0032	-45.5469	279.1775	36.47	541.8185	-0.0462	0.0182	-0.0073	-0.0462	0.0165	0.9715
6.8092	0	0	0	0	0	0	-3.9854	758.4024	-46.2999	276.197	36.0137	534.0945	-0.0462	0.0182	-0.0073	-0.0462	0.0165	0.9715
6.8233	0	0	0	0	0	0	-1.9897	751.0213	-47.3282	272.8538	35.5549	525.5927	-0.0462	0.0182	-0.0073	-0.0462	0.0165	0.9715
6.8374	0	0	0	0	0	0	0.3243	744.0409	-48.6388	269.5874	35.1112	517.1374	-0.0462	0.0182	-0.0073	-0.0462	0.0165	0.9715
6.8514	0	0	0	0	0	0	2.9231	738.2926	-50.1827	266.7163	34.6824	509.3512	-0.0462	0.0182	-0.0073	-0.0462	0.0165	0.9715
6.8655	0	0	0	0	0	0	5.7341	734.0285	-51.8438	264.3558	34.2431	502.4951	-0.0462	0.0182	-0.0073	-0.0462	0.0165	0.9715
6.8796	14.4903	24.9008	-1.113	-9.6068	6.9666	19.1376	8.6474	730.8022	-53.4404	262.3747	33.7412	496.382	-0.0462	0.0182	-0.0073	-0.0462	0.0165	0.9715
6.8936	14.1393	55.0416	-1.5063	-21.2825	7.0987	45.839	11.5257	727.4851	-54.7403	260.4002	33.1026	490.3793	-0.0462	0.0182	-0.0073	-0.0462	0.0165	0.9715
6.9077	11.7794	92.5248	-1.3324	-35.7646	5.9492	79.1016	14.2198	722.4177	-55.4895	257.8702	32.2421	483.4998	-0.0462	0.0182	-0.0073	-0.0462	0.0165	0.9715
6.9218	7.3945	135.4567	-0.39763	-52.3074	3.348	117.199	16.5902	713.6723	-55.4514	254.1252	31.0786	474.5654	-0.0462	0.0182	-0.0073	-0.0462	0.0165	0.9715
6.9359	1.3434	181.1758	1.421	-69.8746	-0.66506	157.6873	18.5274	699.3826	-54.4466	248.5224	29.5515	462.4158	-0.0462	0.0182	-0.0073	-0.0462	0.0165	0.9715
6.9499	-5.6838	226.6959	4.133	-87.3137	-5.8215	197.803	19.9674	678.0772	-52.3883	240.5517	27.6354	446.1219	-0.0462	0.0182	-0.0073	-0.0462	0.0165	0.9715
6.964	-12.8084	269.2755	7.6109	-103.5786	-11.6593	234.9836	20.8975	648.9552	-49.301	229.9319	25.3491	425.1649	-0.0462	0.0182	-0.0073	-0.0462	0.0165	0.9715
6.9781	-19.154	306.9643	11.6007	-117.9393	-17.6082	267.3734	21.3525	612.0478	-45.3215	216.6662	22.7567	399.5449	-0.0462	0.0182	-0.0073	-0.0462	0.0165	0.9715
6.9921	-24.0173	338.9502	15.7734	-130.1122	-23.1032	294.1514	21.4002	568.2349	-40.6783	201.0502	19.9604	369.7975	-0.0462	0.0182	-0.0073	-0.0462	0.0165	0.9715
7.0062	-26.9773	365.6026	19.7974	-140.2713	-27.6918	315.5821	21.1222	519.1169	-35.6568	183.6277	17.0875	336.9181	-0.0462	0.0182	-0.0073	-0.0462	0.0165	0.9715
7.0203	-27.9298	388.237	23.4103	-148.9505	-31.1088	332.811	20.5924	466.7742	-30.5594	165.1088	14.2756	302.2116	-0.0462	0.0182	-0.0073	-0.0462	0.0165	0.9715
7.0344	-27.0606	408.7133	26.4679	-156.8842	-33.3069	347.5045	19.8603	413.4692	-25.6696	146.2678	11.6595	267.1043	-0.0462	0.0182	-0.0073	-0.0462	0.0165	0.9715
7.0484	-24.7769	428.9995	28.9626	-164.8357	-34.442	361.4549	18.9428	361.3512	-21.2273	127.8414	9.3614	232.9547	-0.0462	0.0182	-0.0073	-0.0462	0.0165	0.9715
7.0625	-21.6165	450.8031	31.0108	-173.4549	-34.8243	376.2408	17.8262	312.2144	-17.4124	110.4448	7.4825	200.896	-0.0462	0.0182	-0.0073	-0.0462	0.0165	0.9715
7.0766	-18.1534	475.3279	32.815	-183.1859	-34.8467	392.9988	16.476	267.3398	-14.3357	94.5178	6.095	171.7331	-0.0462	0.0182	-0.0073	-0.0462	0.0165	0.9715
